<svg id="Capa_1" enable-background="new 0 0 511.856 511.856" height="25" viewBox="0 0 511.856 511.856" width="25" xmlns="http://www.w3.org/2000/svg"><g><path d="m198.252 255.928c0-50.9 22.258-96.692 57.542-128.179-14.089-6.689-29.447-11.123-45.607-12.83v-75.712h-30v75.712c-40.823 4.312-76.53 26.018-99.562 57.546l-65.625-37.888-15 25.98 65.581 37.863c-7.834 17.586-12.197 37.046-12.197 57.507s4.363 39.921 12.197 57.507l-65.581 37.865 15 25.98 65.624-37.888c23.032 31.528 58.739 53.234 99.562 57.546v75.712h30v-75.712c16.16-1.707 31.518-6.141 45.607-12.83-35.283-31.487-57.541-77.279-57.541-128.179z"/><path d="m298.603 378.37 193.892-193.892c-12.333-21.053-29.937-38.658-50.991-50.991l-193.891 193.892c12.333 21.053 29.937 38.657 50.99 50.991z"/><path d="m505.499 213.9-177.472 177.472c13.285 4.131 27.402 6.358 42.028 6.358 78.189 0 141.802-63.612 141.802-141.802-.001-14.626-2.228-28.742-6.358-42.028z"/><path d="m412.082 120.484c-13.285-4.131-27.401-6.358-42.027-6.358-78.19 0-141.803 63.612-141.803 141.802 0 14.626 2.227 28.742 6.358 42.028z"/></g></svg>