<?xml version="1.0"?>
<svg xmlns="http://www.w3.org/2000/svg" id="outline" viewBox="0 0 512 512" width="27" height="27"><path d="M20.42188,439.15527l16,8a7.99795,7.99795,0,0,0,9.72363-2.03369L83.74707,400h84.96a64.42231,64.42231,0,0,0,54.50684-30.45752l41.94629-68.163,96.31152,40.55212L400,465.2207V488a8.00008,8.00008,0,0,0,8,8h80a8.00008,8.00008,0,0,0,8-8V472a8.00072,8.00072,0,0,0-3.88379-6.85986L455.10938,442.936,428.7373,317.67236a64.3178,64.3178,0,0,0-28.70605-41.0874l-98.42139-61.513,34.65186-28.87616,15.03808,11.27881a52.62548,52.62548,0,0,0,66.78028-2.98389l58.02832-52.22558a35.9208,35.9208,0,0,0,1.37109-52.09961l-7.82226-7.82227a8.00122,8.00122,0,0,0-11.31446,0l-8.15136,8.15137-1.49805-2.99658a13.564,13.564,0,0,0-25.43262,3.40576l-6.41113,32.05713-29.958,17.97461-10.88867-19.05469a66.9108,66.9108,0,0,0-7.814-10.94733A32.0546,32.0546,0,0,0,392,80V59.314l.68652-.68652A24.97074,24.97074,0,0,0,375.0293,16H360a32.03635,32.03635,0,0,0-32,32V80a31.88819,31.88819,0,0,0,1.30762,9.03571A66.88232,66.88232,0,0,0,317.62109,88H223.29688a71.53187,71.53187,0,0,0-42.52247,13.89844L106.38379,156.3418A25.25339,25.25339,0,0,0,97.57837,168H80a8.00071,8.00071,0,0,0-7.58984,5.47021L66.23364,192H40a8.00008,8.00008,0,0,0-8,8v80a8.00008,8.00008,0,0,0,8,8H176a7.968,7.968,0,0,0,2.78711-.509L162.4082,328.438,71.667,336H48a7.99975,7.99975,0,0,0-7.71777,5.895l-24,88A7.99938,7.99938,0,0,0,20.42188,439.15527ZM480,476.5293V480H416V469.416l31.28662-12.51465Zm-66.91895-155.561,25.70606,122.101-25.73047,10.29212-37.4209-119.74756a7.99815,7.99815,0,0,0-4.53125-4.98682l-117.73144-49.5708A47.90023,47.90023,0,0,1,224,234.81738V224h61.70605l105.84473,66.15283A48.24032,48.24032,0,0,1,413.08105,320.96826Zm24.47657-219.96435,3.28711,6.57373a8.00038,8.00038,0,0,0,12.8125,2.0791L464,99.31348l2.165,2.16552a19.92012,19.92012,0,0,1-.75977,28.89307l-14.58886,13.13025-18.13184-18.1319ZM376,80a16,16,0,0,1-32,0V75.31348L355.31348,64H376ZM360,32h15.0293a8.97038,8.97038,0,0,1,6.34277,15.314l-.686.686H352a8.00076,8.00076,0,0,0-5.65723,2.34326L344,52.686V48A16.01833,16.01833,0,0,1,360,32Zm2.11035,97.81885,14.94336,26.15039a8.00048,8.00048,0,0,0,11.0625,2.89062l34.64356-20.78613,16.147,16.14716L407.377,182.59814a36.627,36.627,0,0,1-46.47754,2.07666L340.7998,169.6001a7.99845,7.99845,0,0,0-9.92089.2539L285.10352,208H224V197.3335a8.04886,8.04886,0,0,1,1.60059-4.8003l51.02734-68.03613a51.24024,51.24024,0,0,1,85.48242,5.32178ZM190.22363,114.80957A55.63526,55.63526,0,0,1,223.29688,104h50.82324a66.6686,66.6686,0,0,0-10.293,10.897L248,136H216a7.99836,7.99836,0,0,0-4.4375,1.34375l-36.67969,24.45319-18.0437-22.55445ZM120,224v8H96v-8H80v8H68.5293L54.12964,208H161.87036L147.4707,232H136v-8Zm23.91553-75.29919,17.84765,22.30957a7.99342,7.99342,0,0,0-1.353,2.45983L154.23315,192h-4.46679l-6.17652-18.52979A8.00071,8.00071,0,0,0,136,168H117.54565ZM85.76562,184h44.46876l2.66625,8H83.09937ZM48,272V228.883l9.13965,15.23272A8.00091,8.00091,0,0,0,64,248H80v8H96v-8h24v8h16v-8h16a8.00091,8.00091,0,0,0,6.86035-3.88428L168,228.883V272Zm128-80h-4.90063l3.62231-10.86621L218.42188,152H236l-23.2002,30.93359A24.15378,24.15378,0,0,0,208,197.3335v17.126L184,274.459V200A8.00008,8.00008,0,0,0,176,192Zm-7.33594,151.97217a7.99943,7.99943,0,0,0,6.76367-5.001L210.29,251.81512a63.8519,63.8519,0,0,0,36.874,41.98713l3.075,1.29467-40.6521,66.05982A48.31517,48.31517,0,0,1,168.707,384H86.77734l-5.458-32.749ZM54.11035,352H65.22266l6.28271,37.69727-33.59521,40.314-4.4668-2.2334Z"/></svg>
