<?xml version="1.0"?>
<svg xmlns="http://www.w3.org/2000/svg" id="Outline" viewBox="0 0 512 512" width="32" height="32"><path d="M256,376a32,32,0,1,0-32-32A32.036,32.036,0,0,0,256,376Zm0-48a16,16,0,1,1-16,16A16.019,16.019,0,0,1,256,328Z"/><path d="M108,176a79.5,79.5,0,0,0,31.114-6.279,8,8,0,0,0,0-14.739,64.029,64.029,0,0,1,0-117.964,8,8,0,0,0,0-14.739A80.008,80.008,0,1,0,108,176Zm0-144a65.126,65.126,0,0,1,7.4.42,80.071,80.071,0,0,0,0,127.16,65.126,65.126,0,0,1-7.4.42,64,64,0,0,1,0-128Z"/><path d="M415.4,179.95l-3.066,17.877a8,8,0,0,0,11.607,8.434L440,197.82l16.055,8.441a8,8,0,0,0,11.607-8.434L464.6,179.95l12.988-12.66a8,8,0,0,0-4.434-13.645L455.2,151.036l-8.027-16.265a8,8,0,0,0-14.348,0L424.8,151.036l-17.949,2.609a8,8,0,0,0-4.434,13.645Zm15.858-13.684a8,8,0,0,0,6.023-4.377l2.715-5.5,2.715,5.5a8,8,0,0,0,6.023,4.377l6.07.881-4.392,4.282a8,8,0,0,0-2.3,7.081l1.037,6.046-5.429-2.855a8,8,0,0,0-7.446,0l-5.429,2.855,1.037-6.046a8,8,0,0,0-2.3-7.081l-4.392-4.282Z"/><path d="M312,152c0-11.193-11.934-39.338-19.472-56h36.848a24.021,24.021,0,1,0,7.733-26.8c-5.894-3.511-12.746-7.427-20.01-11.252-11.059-5.822-44.712-23.541-63.518-17.572-18.333,5.817-31.463,30.388-39.25,49.977C205.893,111.576,200,136.927,200,152a56,56,0,0,0,112,0Zm40-72a8,8,0,1,1-8,8A8.009,8.009,0,0,1,352,80ZM229.2,96.262c8.934-22.474,19.858-37.665,29.221-40.637a14.37,14.37,0,0,1,4.313-.573c13.115,0,38.5,11.8,61.285,24.948h-51.94a3,3,0,0,0-2.708,4.291l3.408,7.151C277.845,102.072,284,115.994,288.7,128H219.374A217.969,217.969,0,0,1,229.2,96.262ZM256,192a40.045,40.045,0,0,1-40-40,70.461,70.461,0,0,1,.543-8h77.816A32.916,32.916,0,0,1,296,152,40.045,40.045,0,0,1,256,192Z"/><path d="M488,416H376.84l15.12-151.2A8,8,0,0,0,384,256H352v-8a40.045,40.045,0,0,0-40-40H200a40.045,40.045,0,0,0-40,40v8H128a8,8,0,0,0-7.96,8.8L135.16,416H104v-8a24.027,24.027,0,0,0-24-24H64a24.027,24.027,0,0,0-24,24v8H24a8,8,0,0,0-8,8v32a8,8,0,0,0,8,8H48v32H64V464H448v32h16V464h24a8,8,0,0,0,8-8V424A8,8,0,0,0,488,416ZM176,248a24.028,24.028,0,0,1,24-24H312a24.028,24.028,0,0,1,24,24v8H176Zm199.16,24-14.4,144H151.24l-14.4-144ZM56,408a8.009,8.009,0,0,1,8-8H80a8.009,8.009,0,0,1,8,8v8H56Zm424,40H32V432H480Z"/></svg>
