<svg height="24" viewBox="0 0 512 512" width="24" xmlns="http://www.w3.org/2000/svg"><g><path d="m472.794 128.079 21.213-21.213-106.866-106.866-21.213 21.213 21.613 21.613-24.385 24.385c-4.994-.625-10.078-.698-15.155-.247v-40.957h-330.001v450h60v36h330v-321.112c14.461-16.986 21.394-39.281 18.795-60.044l24.385-24.385zm-424.794 317.928v-390h270v19.921c-5.264 2.777-10.272 6.149-14.888 10.079h-126.325l-98.787 98.786v261.213h-30zm120-308.787v38.787h-38.787zm-60 344.787v-276h90v-90h104.737l27.025 27.025-48.287 48.287 21.213 21.213 48.288-48.288 27.024 27.026v290.737zm285.854-360.641c.409 4.04 8.944 19.562-2.444 40.887l-59.657-59.657c21.449-11.452 36.651-2.872 40.887-2.443l36.114-36.114 21.213 21.213z"/><path d="m183 319.793-19.393-19.393-21.213 21.213 40.606 40.607 70.607-70.607-21.213-21.213z"/><path d="m183 409.793-19.393-19.393-21.213 21.213 40.606 40.607 70.607-70.607-21.213-21.213z"/><path d="m288 296.007h60v30h-60z"/><path d="m288 386.007h60v30h-60z"/></g></svg>